<?xml version="1.0" standalone="no"?>
<!DOCTYPE svg PUBLIC "-//W3C//DTD SVG 20010904//EN"
 "http://www.w3.org/TR/2001/REC-SVG-20010904/DTD/svg10.dtd">
<svg version="1.0" xmlns="http://www.w3.org/2000/svg"
 width="547.000000pt" height="456.000000pt" viewBox="0 0 547.000000 456.000000"
 preserveAspectRatio="xMidYMid meet">

<g transform="translate(0.000000,456.000000) scale(0.100000,-0.100000)"
fill="#000000" stroke="none">
<path d="M1873 4182 c-149 -2 -190 -10 -147 -26 9 -3 42 -6 74 -6 86 0 181
-33 219 -75 75 -86 79 -114 86 -580 3 -220 7 -401 9 -402 2 -2 28 34 58 79 30
46 85 115 122 154 l66 72 0 375 c0 297 3 376 13 380 30 11 566 -2 669 -17 167
-24 305 -63 411 -117 36 -19 51 -20 141 -14 56 3 110 9 120 12 18 5 18 6 2 15
-9 5 -66 27 -125 48 -144 51 -319 87 -488 100 -122 10 -736 11 -1230 2z m406
-409 c-1 -145 -5 -247 -9 -233 -16 50 -10 490 6 490 2 0 4 -116 3 -257z"/>
<path d="M3530 3975 c-571 -74 -1080 -410 -1431 -945 l-16 -25 -99 33 c-207
69 -352 156 -447 270 -80 95 -91 137 -57 217 28 66 26 109 -6 134 -31 25 -46
26 -83 7 -95 -50 -50 -235 96 -396 104 -114 239 -193 447 -262 66 -22 122 -41
124 -43 2 -1 -15 -45 -38 -98 -67 -159 -97 -320 -76 -420 18 -84 21 -77 -27
-77 -25 0 -84 -7 -133 -15 -381 -67 -687 -316 -824 -670 -132 -344 -73 -762
145 -1019 107 -126 247 -211 430 -262 88 -24 117 -28 250 -28 162 0 254 16
400 71 442 165 667 467 815 1088 96 407 152 579 235 725 61 107 76 121 229
210 81 47 182 112 225 146 122 96 179 204 116 220 -108 27 -354 -152 -510
-370 -31 -44 -57 -69 -83 -79 -20 -9 -107 -45 -192 -80 -156 -64 -284 -103
-439 -131 -125 -24 -141 -22 -182 20 -70 74 -210 150 -311 168 -35 6 -37 9
-44 53 -17 114 12 234 100 406 58 114 48 109 166 84 136 -29 304 -40 535 -34
121 3 252 11 290 16 126 20 347 73 470 113 229 75 547 252 531 295 -3 8 -6 17
-6 19 0 13 -29 -3 -93 -51 -111 -86 -337 -190 -547 -254 -184 -56 -507 -101
-721 -101 -160 0 -529 43 -529 62 0 12 81 115 163 207 212 237 500 449 776
570 221 98 396 145 601 161 135 11 191 9 285 -12 145 -32 235 -129 235 -256 0
-46 4 -63 19 -76 19 -17 20 -17 27 19 3 20 4 61 1 90 -15 142 -107 233 -287
285 -97 28 -371 36 -530 15z m500 -33 c22 -10 20 -11 -15 -4 -68 12 -285 5
-385 -12 -199 -35 -458 -121 -618 -207 -197 -105 -398 -264 -597 -471 -65 -68
-99 -98 -74 -68 68 84 275 290 359 357 215 172 365 251 650 343 71 23 169 44
300 65 99 16 343 14 380 -3z m-1938 -1154 c-33 -72 -61 -175 -73 -267 -11 -81
-10 -93 10 -160 27 -90 78 -148 165 -192 33 -16 50 -27 36 -23 -92 24 -157 74
-200 155 -33 60 -35 70 -35 159 0 72 6 113 23 169 26 83 83 214 89 207 2 -2
-4 -24 -15 -48z m1688 -7 c0 -22 -53 -81 -120 -134 -78 -60 -228 -153 -235
-145 -9 9 173 178 249 232 73 53 106 67 106 47z m-336 -213 c-134 -144 -195
-232 -271 -394 -65 -138 -113 -281 -164 -494 -78 -326 -117 -453 -179 -587
-108 -233 -281 -423 -493 -542 -32 -18 -61 -31 -63 -28 -3 3 25 22 62 43 145
81 273 206 380 369 113 175 148 266 243 640 111 440 179 616 310 804 41 59
206 241 219 241 3 0 -17 -24 -44 -52z m-1435 -288 c58 -86 177 -151 303 -167
26 -3 54 -13 61 -22 23 -26 64 -139 83 -231 25 -116 26 -373 1 -483 -20 -91
-51 -169 -78 -193 -19 -17 -19 -9 -19 438 l0 456 -66 11 c-58 10 -101 24 -176
56 -17 7 -18 -16 -18 -402 0 -469 -2 -484 -73 -557 -52 -54 -127 -83 -237 -92
-62 -5 -80 -10 -80 -22 0 -13 32 -14 268 -8 563 14 677 19 684 30 5 8 -27 12
-107 14 -63 1 -115 4 -115 7 0 2 22 50 49 107 56 117 75 183 92 318 19 160
-11 367 -72 494 -16 33 -29 63 -29 68 0 4 14 8 30 8 80 0 383 89 566 165 57
24 104 42 104 39 0 -2 -20 -35 -45 -74 -94 -147 -168 -323 -265 -630 -137
-437 -200 -591 -303 -738 -188 -270 -492 -432 -814 -432 -191 0 -349 63 -496
199 -92 85 -174 271 -198 446 -18 139 -7 387 24 506 80 307 239 507 508 633
112 53 202 83 284 95 99 14 97 15 134 -39z m176 -15 c69 -39 133 -90 124 -100
-11 -11 -112 24 -152 53 -21 15 -48 42 -60 61 l-21 33 25 -7 c13 -4 51 -22 84
-40z m-565 5 c-8 -5 -19 -10 -25 -10 -5 0 -3 5 5 10 8 5 20 10 25 10 6 0 3 -5
-5 -10z m754 -77 c174 -166 233 -534 135 -838 -16 -49 -33 -97 -39 -105 -14
-21 -12 -9 5 41 44 124 57 218 52 389 -8 288 -68 438 -227 564 l-35 28 32 -18
c18 -10 53 -37 77 -61z m-867 23 c-260 -148 -419 -385 -473 -702 -25 -145 -22
-369 6 -504 23 -113 75 -236 135 -324 l36 -51 -35 38 c-52 58 -123 209 -151
320 -47 187 -43 436 9 633 74 273 227 469 471 601 90 49 91 40 2 -11z m791
-611 c1 -126 -2 -259 -6 -295 -12 -104 -23 268 -15 464 10 219 20 135 21 -169z"/>
<path d="M3718 3881 c-25 -6 -24 -8 48 -71 132 -114 285 -308 381 -480 39 -70
110 -236 135 -315 48 -151 70 -295 75 -490 4 -162 2 -208 -15 -310 -26 -149
-57 -246 -122 -375 -99 -200 -214 -337 -394 -471 -153 -113 -383 -211 -571
-244 -80 -13 -292 -34 -352 -35 -14 0 -23 -6 -23 -15 0 -14 17 -16 113 -14
361 5 725 123 993 322 106 79 252 233 328 345 182 271 266 555 266 892 0 495
-176 894 -524 1186 l-100 84 -105 -1 c-58 -1 -118 -4 -133 -8z m606 -466 c87
-131 93 -143 139 -266 115 -307 104 -752 -28 -1102 -61 -164 -191 -374 -284
-459 l-36 -33 31 35 c170 191 297 471 350 765 21 122 29 376 15 503 -29 272
-133 499 -339 742 l-63 75 71 -75 c39 -41 104 -124 144 -185z"/>
<path d="M2322 3034 c-19 -25 -32 -47 -30 -50 3 -2 19 -7 36 -10 l32 -6 0 56
c0 31 -1 56 -2 56 -2 -1 -18 -21 -36 -46z"/>
<path d="M2192 2848 c-17 -29 -44 -84 -61 -122 l-31 -68 7 -135 8 -135 76 -28
c42 -15 97 -40 123 -55 l46 -27 0 300 0 300 -47 7 c-27 3 -58 9 -69 12 -18 4
-27 -5 -52 -49z"/>
</g>
</svg>
