<?xml version="1.0" standalone="no"?>
<!DOCTYPE svg PUBLIC "-//W3C//DTD SVG 20010904//EN"
 "http://www.w3.org/TR/2001/REC-SVG-20010904/DTD/svg10.dtd">
<svg version="1.0" xmlns="http://www.w3.org/2000/svg"
 width="547.000000pt" height="456.000000pt" viewBox="0 0 547.000000 456.000000"
 preserveAspectRatio="xMidYMid meet">

<g transform="translate(0.000000,456.000000) scale(0.100000,-0.100000)"
fill="#000000" stroke="none">
<path d="M3735 4148 c11 -55 54 -141 88 -176 18 -19 59 -49 92 -67 56 -32 150
-115 130 -115 -15 0 -84 25 -91 33 -11 10 -52 8 -59 -2 -9 -15 27 -30 58 -24
47 9 128 -39 207 -124 39 -42 69 -78 66 -80 -5 -6 -53 25 -86 55 -52 47 -105
64 -206 66 -52 1 -94 -1 -94 -4 0 -15 60 -61 104 -81 42 -18 59 -20 121 -14
62 5 79 3 111 -13 77 -40 145 -123 241 -297 63 -114 72 -140 34 -94 -16 19
-55 55 -85 78 -53 41 -70 62 -96 121 -6 14 -19 33 -27 42 -18 20 -43 24 -43 7
0 -5 4 -8 10 -4 5 3 19 -4 30 -15 17 -17 19 -24 8 -43 -7 -12 -11 -25 -10 -29
3 -13 -63 12 -76 29 -11 16 -10 18 8 21 12 2 33 -4 47 -13 l26 -17 -19 24
c-13 18 -25 23 -46 20 -34 -5 -44 -18 -28 -37 10 -12 10 -18 0 -30 -16 -19 -6
-45 17 -45 17 1 17 1 1 11 -41 24 -7 43 47 26 36 -11 36 -11 13 -24 l-23 -13
25 1 c79 6 89 1 169 -78 60 -60 87 -96 114 -153 33 -71 83 -227 75 -236 -3 -2
-23 22 -46 54 -23 31 -56 74 -72 95 -16 21 -36 62 -44 91 -16 54 -53 109 -95
141 l-24 18 7 -46 7 -45 -93 40 c-51 22 -99 45 -106 50 -51 42 14 -85 75 -146
56 -56 92 -76 189 -105 39 -12 83 -30 97 -41 45 -35 115 -160 133 -235 22 -94
24 -377 4 -495 l-15 -85 -6 120 c-5 91 -14 140 -35 205 -22 68 -28 102 -27
170 0 47 -1 72 -3 55 -8 -56 -14 -75 -25 -75 -8 0 -10 19 -7 56 3 36 2 50 -4
40 -5 -9 -14 -14 -20 -10 -6 4 -6 -1 1 -14 13 -25 14 -45 2 -38 -5 4 -12 0
-15 -6 -3 -9 -9 -7 -20 6 -9 11 -16 15 -16 9 0 -6 7 -16 15 -23 14 -12 21 -40
9 -40 -11 0 -49 23 -56 34 -6 8 -8 7 -8 -1 0 -14 38 -43 57 -43 6 0 27 -10 46
-22 29 -19 39 -35 56 -92 12 -38 19 -71 18 -73 -2 -2 -19 20 -38 47 -26 39
-48 58 -94 80 -108 52 -115 50 -62 -12 38 -44 60 -60 107 -77 52 -19 63 -28
81 -63 12 -24 23 -68 25 -102 3 -34 6 -85 9 -115 5 -69 -3 -60 -20 24 -16 74
-52 143 -90 174 -14 11 -57 32 -95 46 -38 15 -85 37 -105 50 -19 14 -35 22
-35 19 0 -3 16 -37 37 -76 42 -80 89 -125 162 -153 28 -11 66 -35 84 -53 31
-33 32 -35 31 -125 -1 -111 -25 -192 -114 -373 -64 -131 -139 -249 -222 -349
-54 -66 -86 -89 -48 -35 12 17 44 76 71 133 27 56 65 131 85 167 46 83 94 202
93 232 0 13 -7 0 -18 -32 -21 -64 -60 -144 -67 -137 -3 3 0 33 7 66 16 82 8
131 -37 218 -54 107 -61 109 -69 19 -10 -100 -2 -133 45 -196 52 -69 54 -121
10 -195 l-30 -50 -1 65 c-1 36 -4 55 -6 42 l-5 -23 -20 23 c-12 14 -18 33 -16
50 3 15 1 25 -3 23 -4 -3 -10 -26 -14 -51 -6 -43 -4 -49 25 -75 28 -26 30 -33
24 -66 -23 -125 -147 -316 -272 -417 -112 -91 -292 -194 -206 -118 17 15 48
50 70 77 21 28 62 75 90 106 28 30 64 80 80 110 24 46 29 66 28 129 0 82 -10
134 -23 125 -5 -3 -30 -40 -55 -83 -36 -62 -48 -93 -56 -152 -6 -41 -15 -93
-21 -115 -11 -40 -58 -130 -65 -123 -2 2 3 26 11 53 21 67 19 110 -9 191 l-23
69 -11 -50 c-7 -33 -7 -67 -1 -100 21 -107 22 -151 5 -182 -22 -44 -113 -118
-181 -148 -60 -27 -216 -75 -243 -75 -9 0 16 23 55 50 96 67 145 125 167 196
10 32 25 69 33 81 21 31 4 29 -45 -7 -56 -40 -98 -100 -117 -166 -8 -30 -29
-69 -45 -87 -35 -41 -133 -87 -192 -91 -44 -3 -199 -44 -277 -73 -61 -23 -140
-88 -157 -130 -17 -39 -16 -162 1 -160 6 1 9 -3 8 -10 -2 -6 9 -21 23 -32 80
-63 209 -14 209 79 0 48 -36 90 -75 90 -29 0 -60 -27 -60 -51 1 -11 3 -10 13
3 20 26 56 27 81 2 23 -23 20 -69 -8 -101 -20 -23 -32 -28 -69 -28 -30 0 -52
6 -65 18 -12 11 -26 16 -33 11 -8 -4 -10 -3 -5 4 4 6 0 25 -9 41 -21 41 -19
79 5 119 31 50 69 80 124 97 102 31 168 17 296 -63 25 -16 60 -34 79 -40 44
-16 148 -15 186 2 l30 13 -28 7 c-15 3 -69 26 -120 51 -110 52 -196 69 -321
63 l-91 -5 60 19 c112 36 266 26 510 -33 175 -42 309 -35 377 21 17 14 10 13
-30 -7 -78 -38 -168 -42 -290 -12 -68 17 -88 25 -67 27 58 5 190 33 233 48 46
17 73 50 48 60 -16 6 -66 -17 -86 -40 -38 -46 -222 -62 -409 -36 l-95 13 120
24 c65 13 164 40 219 59 122 44 222 71 291 80 55 6 85 -4 184 -64 58 -35 141
-36 215 -2 l50 23 -52 8 c-28 5 -75 18 -105 30 -38 15 -75 21 -133 21 l-80 0
65 20 c36 11 106 30 155 42 118 30 154 46 206 93 48 43 122 133 115 140 -6 6
-173 -45 -209 -63 -15 -8 -65 -50 -112 -94 -47 -44 -97 -85 -112 -91 -41 -16
-171 -46 -228 -53 l-50 -7 50 28 c89 50 158 101 250 182 50 44 117 96 150 115
84 49 219 86 311 86 83 0 139 22 204 81 19 17 51 44 70 60 l35 29 -65 0 c-78
0 -121 -18 -228 -93 -69 -48 -139 -83 -149 -74 -2 2 18 15 44 30 71 38 127 99
167 182 20 41 36 76 36 79 0 10 -115 -72 -141 -100 -14 -16 -42 -56 -62 -89
-19 -33 -44 -70 -55 -83 -21 -23 -182 -102 -165 -80 5 7 37 47 70 88 34 41 87
118 118 170 69 116 115 165 180 196 63 30 81 30 101 -1 18 -27 54 -34 54 -10
0 8 6 15 14 15 7 0 20 7 27 16 11 14 10 18 -6 31 -11 8 -19 21 -17 29 5 24
-34 16 -66 -14 -17 -16 -50 -34 -74 -41 -23 -7 -55 -22 -70 -33 -52 -37 -28 2
50 80 93 93 135 112 213 94 70 -16 94 -15 138 7 39 21 71 51 53 51 -6 0 -14
-5 -18 -11 -3 -6 -26 -20 -50 -31 -43 -19 -96 -18 -134 2 -14 8 -7 10 80 23
14 3 5 5 -20 6 -41 2 -43 3 -20 12 14 6 62 9 107 8 50 -2 87 1 94 8 7 7 -19
10 -95 8 -100 -3 -108 -5 -173 -40 l-68 -37 70 71 c39 40 93 85 120 100 96 55
140 125 159 254 l5 38 -30 -22 c-41 -29 -82 -86 -125 -176 -20 -41 -37 -73
-39 -71 -3 2 7 26 21 53 24 46 25 57 20 134 -3 46 -9 88 -14 93 -5 5 -18 -12
-31 -42 -18 -43 -22 -67 -20 -143 2 -72 -1 -99 -15 -127 -19 -36 -114 -140
-129 -140 -4 0 4 21 19 46 22 37 28 61 30 123 l3 76 -8 -70 c-4 -38 -14 -83
-21 -98 l-14 -28 -13 23 c-7 13 -12 38 -13 56 0 39 38 134 51 126 5 -3 9 4 9
15 0 37 -17 22 -45 -41 -25 -56 -27 -68 -21 -137 7 -92 0 -107 -97 -211 l-67
-72 26 68 c52 135 84 244 104 356 33 186 69 259 141 283 26 9 34 17 34 36 0
18 -5 24 -20 22 -11 -1 -24 -9 -30 -19 -5 -9 -24 -34 -42 -55 -17 -22 -35 -48
-38 -59 -12 -38 -25 -20 -19 28 10 85 33 150 60 171 15 11 48 22 82 26 80 9
86 12 122 48 29 29 80 100 80 111 0 2 -21 -4 -47 -14 -27 -11 -70 -27 -98 -37
-35 -12 -66 -34 -102 -72 -29 -30 -53 -52 -53 -48 0 18 46 95 81 137 61 72 82
131 87 240 l4 95 -42 -40 c-22 -22 -58 -73 -78 -114 -32 -65 -37 -85 -43 -180
-5 -61 -16 -129 -27 -161 l-20 -55 -5 45 c-30 241 -34 342 -18 412 5 21 22 58
37 83 63 100 74 128 74 185 0 63 -10 130 -19 130 -3 0 -28 -39 -56 -87 l-50
-88 -1 -158 c-1 -155 -7 -197 -19 -141 -4 16 -27 89 -52 163 -58 174 -59 248
-1 289 22 16 24 52 3 52 -9 0 -17 -6 -19 -12 -3 -7 -12 -35 -22 -63 l-18 -49
-10 32 c-6 22 -5 51 3 88 11 49 18 59 61 90 58 42 83 95 40 86 -27 -6 -62 -46
-85 -97 -19 -40 -24 -45 -24 -25 -1 14 8 49 19 79 12 29 19 56 16 58 -2 2 -7
-5 -11 -16 -4 -12 -12 -18 -21 -14 -8 3 -14 -1 -14 -8 -1 -28 -40 34 -40 62 0
35 13 37 34 7 l16 -22 0 26 c0 14 7 31 15 38 12 10 15 7 20 -17 11 -46 13 -50
14 -18 1 29 -14 55 -31 55 -4 0 -14 -12 -22 -27 -8 -16 -15 -22 -16 -15 0 6
-9 12 -19 12 -25 0 -32 -36 -14 -72 19 -40 -3 -36 -27 5 -11 17 -20 28 -20 24
0 -18 24 -53 56 -83 33 -31 34 -34 34 -106 0 -42 3 -97 6 -124 l6 -49 -46 78
c-24 42 -54 90 -64 105 -33 46 -91 167 -103 215 -8 35 -8 63 1 116 10 60 9 78
-5 127 -16 56 -57 127 -89 153 -14 12 -16 7 -14 -45 1 -59 1 -59 7 -14 l6 45
23 -32 c45 -63 62 -115 62 -190 0 -77 -13 -97 -24 -38 -4 20 -11 33 -17 29 -6
-3 -8 -11 -6 -18 2 -6 8 -22 12 -36 l7 -25 -17 23 c-9 12 -25 46 -35 75 -11
31 -19 43 -19 30 -1 -27 14 -63 54 -128 31 -51 68 -136 61 -142 -2 -2 -19 15
-37 39 -19 23 -61 72 -93 108 -74 82 -124 180 -108 216 13 27 6 54 -13 54 -25
0 -25 -17 0 -90 21 -61 22 -70 7 -59 -34 28 -54 55 -83 117 -51 109 -85 149
-177 206 l-44 27 7 -33z m75 -33 c43 -31 77 -73 108 -132 19 -34 -15 -23 -50
18 l-30 34 24 -35 c12 -19 23 -38 23 -42 0 -4 9 -14 20 -23 19 -15 18 -15 -10
-1 -44 21 -91 74 -119 136 -26 54 -32 80 -20 80 4 0 28 -16 54 -35z m220 -160
c0 -8 -2 -15 -4 -15 -2 0 -6 7 -10 15 -3 8 -1 15 4 15 6 0 10 -7 10 -15z m25
-269 c47 -20 44 -27 -7 -21 l-43 5 40 -10 c60 -16 62 -27 7 -35 -42 -5 -59 -2
-105 19 -30 15 -60 33 -67 41 -11 13 -2 15 64 15 44 0 91 -6 111 -14z m545
-144 c0 -15 -34 -39 -53 -39 -15 0 -15 3 5 24 21 23 48 31 48 15z m137 -334
c-4 -31 -20 -68 -46 -110 -41 -64 -50 -67 -30 -9 9 25 9 35 -1 44 -10 9 -11 9
-6 0 4 -7 0 -23 -9 -35 -16 -22 -17 -21 -10 27 8 59 22 95 61 156 l28 44 9
-35 c5 -19 7 -56 4 -82z m-387 -88 c46 -36 69 -69 45 -66 -8 1 -18 6 -22 11
-4 4 -2 5 6 0 10 -5 12 -4 7 4 -4 6 -11 9 -16 6 -5 -3 -20 -1 -32 6 -16 8 -12
2 11 -20 18 -17 41 -36 50 -42 12 -8 9 -9 -14 -4 -49 10 -128 52 -164 87 -37
36 -91 106 -91 119 0 13 179 -69 220 -101z m19 61 c26 -33 51 -80 51 -98 0 -3
-20 15 -45 40 -25 26 -45 50 -45 56 0 5 -3 16 -6 25 -11 29 14 16 45 -23z
m491 -189 c0 -89 -37 -201 -85 -257 l-25 -30 25 69 c14 38 24 74 22 80 -2 6
-10 -7 -17 -29 -19 -59 -60 -132 -60 -108 0 82 36 183 94 260 37 50 46 53 46
15z m91 -290 c-15 -28 -64 -73 -89 -83 -13 -5 -40 -9 -60 -9 l-37 1 45 24 c51
27 47 32 -8 10 l-37 -15 30 25 c17 14 55 34 85 44 72 25 83 26 71 3z m-512
-181 c38 -20 71 -51 54 -51 -5 0 -13 3 -19 8 -5 4 -1 -1 9 -10 22 -20 7 -24
-26 -7 -27 14 -77 60 -77 71 0 13 18 9 59 -11z m361 -30 c0 -12 -20 -25 -27
-18 -7 7 6 27 18 27 5 0 9 -4 9 -9z m-410 -99 c67 -29 91 -46 117 -80 18 -24
33 -49 33 -55 0 -7 -5 -5 -10 4 -5 9 -22 24 -37 34 l-28 18 24 -27 c21 -22 37
-56 27 -56 -16 0 -146 74 -162 91 -19 23 -64 95 -64 105 0 8 15 3 100 -34z
m498 -132 c1 -45 -25 -127 -27 -85 -1 17 -3 17 -11 5 -18 -27 -11 97 7 142
l18 43 6 -30 c4 -16 7 -50 7 -75z m137 48 c-18 -90 -37 -128 -87 -173 -54 -48
-79 -54 -36 -7 14 15 33 41 43 57 17 29 17 28 -14 -5 l-32 -35 16 35 c30 66
48 95 78 128 17 17 33 32 35 32 2 0 1 -15 -3 -32z m-708 -382 c15 -29 26 -71
29 -105 2 -31 1 -47 -2 -36 -4 11 -9 22 -13 25 -4 3 -11 16 -18 30 l-11 25 2
-30 c1 -16 5 -37 9 -45 5 -8 -5 0 -22 19 -37 42 -45 76 -36 149 7 53 8 55 22
37 8 -11 26 -42 40 -69z m418 -116 c-3 -5 -13 -10 -21 -10 -8 0 -12 5 -9 10 3
6 13 10 21 10 8 0 12 -4 9 -10z m24 -33 c14 -17 4 -27 -25 -27 -17 0 -22 5
-21 20 1 23 29 27 46 7z m-54 -38 c11 -17 -1 -21 -15 -4 -8 9 -8 15 -2 15 6 0
14 -5 17 -11z m-465 -132 c0 -5 -7 -4 -15 3 -8 7 -15 20 -15 29 1 13 3 13 15
-3 8 -11 15 -24 15 -29z m335 -64 c-34 -57 -67 -99 -103 -127 -28 -22 -23 -8
12 34 11 14 4 9 -17 -9 -20 -19 -37 -31 -37 -27 0 12 40 77 64 105 27 30 98
83 104 77 2 -3 -8 -27 -23 -53z m-545 -125 c0 -70 -29 -150 -71 -198 l-31 -35
20 36 c14 25 17 41 10 50 -7 10 -8 9 -3 -6 5 -16 4 -18 -7 -7 -10 10 -15 5
-25 -25 -11 -37 -11 -37 -6 17 8 78 26 133 64 196 38 62 49 57 49 -28z m700
31 c-68 -62 -111 -85 -172 -91 -27 -3 -48 -4 -48 -2 0 2 25 15 55 29 69 30 72
42 5 15 -27 -11 -50 -18 -50 -16 0 2 23 21 52 42 56 42 136 73 183 73 l30 0
-55 -50z m-895 -211 c4 -20 4 -47 0 -59 -12 -38 -27 -4 -32 73 -4 68 -3 71 11
48 8 -14 18 -42 21 -62z m577 -56 c-53 -74 -157 -141 -242 -156 l-35 -7 30 15
c36 18 108 80 81 70 -15 -6 -17 -4 -11 7 5 8 5 11 -1 6 -5 -5 -9 -14 -9 -19 0
-6 -6 -13 -14 -16 -9 -3 -11 0 -6 9 6 10 2 9 -11 -2 -34 -28 -50 -34 -29 -10
40 46 117 93 188 115 39 13 74 21 76 20 2 -2 -6 -16 -17 -32z m-833 -118 c-12
-32 -39 -76 -61 -98 l-39 -41 22 40 22 40 -27 -30 -26 -30 18 49 c17 49 103
158 109 139 2 -6 -6 -36 -18 -69z m574 -163 l89 -28 -33 -12 c-57 -20 -128
-14 -176 15 -50 29 -52 40 -4 23 18 -6 34 -9 37 -6 3 3 -14 12 -38 20 l-43 15
40 1 c22 0 80 -12 128 -28z m-898 -222 c65 -18 215 -91 208 -102 -3 -5 -34 -7
-73 -5 -54 4 -81 13 -132 41 -100 56 -113 71 -38 43 105 -38 109 -38 35 -2
-71 36 -71 44 0 25z"/>
<path d="M3896 3987 c3 -10 9 -15 12 -12 3 3 0 11 -7 18 -10 9 -11 8 -5 -6z"/>
<path d="M4676 3165 c-9 -26 -7 -32 5 -12 6 10 9 21 6 23 -2 3 -7 -2 -11 -11z"/>
<path d="M4270 3116 c0 -3 9 -10 20 -16 11 -6 20 -8 20 -6 0 3 -9 10 -20 16
-11 6 -20 8 -20 6z"/>
<path d="M4420 2336 c0 -3 9 -10 20 -16 11 -6 20 -8 20 -6 0 3 -9 10 -20 16
-11 6 -20 8 -20 6z"/>
<path d="M1700 4141 c-64 -40 -106 -91 -152 -186 -22 -46 -55 -97 -73 -115
l-34 -33 21 64 c27 83 27 102 4 107 -17 4 -18 0 -12 -43 10 -64 -21 -125 -125
-246 -126 -146 -124 -145 -99 -79 12 30 27 64 34 75 12 19 14 91 3 102 -3 2
-10 -15 -15 -39 l-9 -43 -8 48 c-13 83 12 176 64 236 18 21 19 21 25 -52 8
-80 3 -112 -26 -170 -11 -22 -17 -41 -14 -44 8 -8 43 68 50 110 4 21 4 77 0
124 l-7 87 -30 -35 c-16 -18 -41 -58 -55 -88 -23 -51 -24 -60 -18 -162 8 -143
5 -151 -159 -437 -26 -45 -50 -81 -52 -78 -2 2 1 32 7 67 5 35 10 89 10 120 0
52 3 59 40 97 22 22 40 49 40 59 0 12 -6 7 -16 -14 -16 -32 -34 -44 -34 -22 0
6 5 19 10 30 6 10 7 19 2 19 -4 0 -14 -16 -21 -35 -14 -39 -31 -46 -31 -13 0
21 0 21 -14 2 -14 -18 -15 -18 -21 9 -4 15 -10 26 -12 23 -3 -2 4 -31 15 -63
20 -60 29 -216 13 -241 -5 -8 -14 8 -27 45 -12 37 -25 59 -37 61 -26 5 -21
-24 12 -57 52 -53 50 -93 -14 -291 -30 -96 -58 -176 -60 -179 -3 -2 -5 22 -6
55 0 32 -1 106 -2 164 l-2 105 -49 89 c-56 101 -63 100 -73 -12 -6 -78 5 -111
70 -212 l42 -64 0 -136 c0 -144 -14 -340 -24 -340 -15 0 -45 134 -50 226 -6
88 -11 110 -39 165 -28 54 -102 149 -117 149 -10 0 -4 -108 9 -172 15 -67 42
-120 94 -180 31 -35 62 -90 62 -108 0 -6 -24 13 -52 43 -36 36 -69 59 -103 71
-27 10 -71 26 -98 36 l-47 18 21 -38 c12 -22 39 -55 59 -75 33 -32 47 -38 115
-48 63 -10 81 -17 101 -40 27 -32 42 -80 50 -162 l6 -60 -40 60 c-74 110 -113
139 -120 88 -2 -15 5 -23 30 -32 58 -22 62 -26 95 -92 22 -44 38 -102 53 -184
18 -97 89 -337 124 -418 11 -24 -129 123 -145 153 -9 17 -12 54 -10 113 2 76
-1 95 -24 144 -19 43 -28 54 -37 45 -16 -16 -15 -169 0 -206 20 -45 23 -26 5
33 -12 41 -13 66 -6 105 l9 51 22 -48 c22 -49 30 -137 13 -137 -6 0 -12 15
-14 33 -2 17 -3 4 -2 -29 1 -34 6 -67 10 -75 17 -27 -56 34 -88 74 -53 65 -57
79 -57 181 0 74 -5 108 -22 153 l-22 58 -12 -50 c-20 -81 -16 -134 12 -195 37
-81 12 -48 -35 45 -39 77 -113 166 -127 152 -14 -14 17 -142 44 -182 15 -22
64 -64 107 -94 44 -30 104 -81 133 -112 l54 -58 -67 36 c-61 32 -74 35 -166
38 -54 2 -99 1 -99 -1 0 -9 59 -58 92 -75 43 -22 80 -24 142 -7 34 9 53 9 83
0 42 -12 132 -88 184 -154 l33 -41 -44 25 c-25 14 -58 29 -74 32 -17 4 -45 21
-63 37 -35 30 -79 40 -70 15 3 -7 -4 -21 -15 -30 -16 -14 -17 -20 -8 -32 7 -8
21 -14 31 -14 11 0 19 -7 19 -15 0 -24 27 -17 48 12 19 26 21 27 63 14 82 -24
140 -79 207 -195 34 -58 90 -141 125 -184 35 -43 67 -83 70 -89 12 -20 -126
47 -156 75 -16 15 -44 55 -64 89 -34 63 -102 132 -163 167 l-32 18 7 -23 c31
-98 107 -194 188 -236 27 -13 47 -27 44 -30 -9 -9 -100 37 -152 77 -80 61
-150 90 -223 90 l-62 0 62 -55 c109 -95 137 -108 252 -116 163 -11 304 -66
401 -154 99 -90 185 -157 266 -205 45 -28 77 -50 71 -50 -37 0 -219 42 -259
60 -27 12 -80 52 -123 94 -41 40 -94 83 -116 94 -37 19 -174 62 -197 62 -15 0
57 -91 108 -138 57 -51 103 -73 195 -92 36 -8 103 -26 150 -41 l85 -28 -75 1
c-56 0 -94 -6 -149 -26 -41 -14 -91 -26 -110 -26 l-36 -1 35 -19 c94 -51 182
-46 272 15 27 19 67 36 91 40 50 7 192 -26 342 -78 55 -19 154 -46 219 -59
l120 -25 -95 -13 c-120 -17 -259 -17 -327 -1 -32 8 -69 27 -93 47 -42 35 -79
44 -79 20 0 -39 73 -67 235 -91 l80 -11 -98 -23 c-124 -30 -208 -26 -287 13
-44 22 -50 23 -30 7 45 -38 124 -54 225 -48 49 4 112 13 138 21 195 61 445 76
551 32 28 -12 21 -12 -65 -8 -119 6 -223 -15 -317 -64 -36 -19 -83 -40 -105
-46 l-40 -12 29 -13 c74 -31 213 -7 290 52 84 64 170 80 272 50 88 -27 142
-88 142 -162 0 -84 -76 -146 -152 -124 -69 21 -90 94 -38 133 30 22 57 16 70
-16 l9 -21 0 22 c2 50 -56 69 -103 32 -21 -16 -26 -29 -26 -63 0 -102 109
-146 208 -86 18 11 31 24 28 28 -3 5 2 28 10 52 22 64 0 140 -55 188 -42 37
-139 80 -244 107 -115 30 -164 52 -232 108 -44 36 -46 37 -20 8 17 -18 49 -44
73 -58 24 -14 41 -27 39 -29 -6 -6 -80 17 -119 37 -21 11 -53 33 -73 50 -20
18 -38 29 -42 26 -7 -8 31 -41 70 -63 77 -42 -34 -22 -183 33 -168 63 -293
133 -425 242 -78 64 -189 217 -231 319 -27 65 -32 137 -10 145 26 10 51 56 37
70 -6 6 -11 21 -11 33 0 13 -4 25 -8 28 -5 3 -7 -7 -4 -22 2 -18 -4 -36 -19
-52 l-22 -25 7 30 c4 17 9 39 11 50 3 11 -2 4 -11 -15 -11 -24 -15 -53 -12
-92 2 -32 3 -58 1 -58 -10 0 -54 107 -59 143 -5 38 -1 49 40 111 42 63 46 74
45 130 0 34 -3 79 -8 101 l-7 40 -42 -75 c-60 -106 -67 -139 -53 -228 7 -41
10 -76 8 -79 -8 -8 -38 55 -63 132 -26 79 -33 67 -8 -14 16 -55 207 -438 246
-494 l22 -32 -28 25 c-35 31 -142 169 -183 235 -45 74 -127 239 -161 325 -56
143 -66 273 -25 329 11 14 59 46 107 71 49 25 96 56 105 70 34 49 91 161 79
154 -7 -4 -24 -15 -38 -24 -14 -10 -53 -28 -88 -40 -35 -13 -80 -35 -100 -50
-39 -28 -92 -121 -92 -162 -1 -13 -7 -36 -14 -53 l-12 -30 -13 64 c-31 157
-32 446 -1 561 16 62 71 158 115 201 25 26 56 43 108 59 140 43 210 96 262
199 14 28 25 52 25 55 0 2 -49 -17 -110 -44 l-110 -48 6 26 c3 15 8 35 11 45
7 28 -10 20 -54 -25 -42 -43 -73 -101 -73 -137 0 -10 -21 -47 -47 -81 -27 -34
-63 -83 -81 -108 l-34 -47 7 35 c13 65 65 211 92 258 15 25 60 79 100 119 76
75 83 79 168 74 18 -1 17 1 -4 11 l-23 12 33 13 c28 11 29 12 6 8 -15 -3 -26
-2 -25 2 1 5 -3 17 -9 28 -13 23 -2 43 32 63 11 6 14 12 7 12 -17 0 -62 -45
-62 -63 0 -8 -7 -20 -15 -27 -8 -7 -15 -20 -15 -29 0 -9 -13 -25 -30 -34 -16
-10 -57 -46 -91 -80 l-62 -62 52 100 c91 173 166 271 241 318 30 19 50 22 135
22 91 1 104 3 140 27 22 14 50 37 63 50 l22 25 -92 -2 c-100 -2 -168 -23 -218
-69 -36 -32 -80 -58 -80 -47 0 5 33 44 73 85 83 85 149 122 202 112 21 -4 36
-2 44 7 23 28 -17 36 -65 13 -50 -24 -78 -30 -68 -15 22 37 64 73 108 96 99
50 169 139 191 241 8 39 2 39 -55 3z m35 -30 c-29 -83 -63 -129 -125 -171 -34
-23 -34 -23 -16 -2 11 12 15 22 11 22 -4 0 0 10 11 23 l19 22 -25 -21 c-46
-38 -52 -38 -31 2 35 68 57 95 107 130 26 19 51 34 55 34 5 0 2 -17 -6 -39z
m-261 -156 c-4 -8 -8 -15 -10 -15 -2 0 -4 7 -4 15 0 8 4 15 10 15 5 0 7 -7 4
-15z m113 -141 c-3 -3 -12 -4 -19 -1 -8 3 -5 6 6 6 11 1 17 -2 13 -5z m22
-131 c-8 -9 -38 -27 -67 -40 -43 -19 -63 -22 -103 -17 -58 8 -53 20 12 34 l44
9 -50 -4 -50 -4 40 19 c28 14 62 20 114 20 67 0 72 -1 60 -17z m-772 -483 c12
-30 22 -71 22 -90 -1 -19 -3 -27 -6 -17 -2 9 -8 17 -13 17 -4 0 -11 12 -14 26
-4 15 -9 24 -12 22 -2 -3 3 -24 11 -48 20 -58 19 -70 -6 -40 -40 49 -59 103
-59 171 0 36 3 69 7 72 8 9 40 -43 70 -113z m500 -23 c-45 -76 -136 -140 -232
-163 -29 -7 -29 -7 11 27 23 19 50 40 60 47 11 7 1 3 -21 -8 -22 -12 -48 -24
-58 -26 -16 -3 -16 -1 3 23 32 41 91 80 176 116 43 19 81 32 83 31 2 -2 -8
-23 -22 -47z m-167 32 c0 -20 -22 -54 -56 -86 -51 -48 -42 -11 15 65 25 32 41
41 41 21z m-439 -318 c22 -45 32 -83 35 -125 2 -34 1 -52 -3 -41 -3 11 -10 23
-16 27 -6 3 -19 26 -28 50 -25 59 -24 30 1 -34 11 -28 18 -53 16 -55 -7 -8
-50 61 -72 116 -17 40 -24 76 -23 126 l0 70 29 -35 c16 -19 44 -64 61 -99z
m-61 -216 c15 -8 32 -21 40 -30 10 -13 4 -12 -34 4 -60 26 -60 18 2 -11 l47
-23 -34 -3 c-18 -2 -46 2 -62 8 -29 12 -99 82 -99 99 0 10 93 -20 140 -44z
m48 -194 c3 -8 -1 -12 -9 -9 -7 2 -15 10 -17 17 -3 8 1 12 9 9 7 -2 15 -10 17
-17z m464 -98 c-11 -21 -33 -51 -50 -66 -31 -30 -151 -91 -160 -82 -3 3 4 19
17 35 27 38 10 40 -19 3 -20 -26 -20 -26 2 16 12 24 36 52 51 63 28 20 169 79
175 73 2 -2 -6 -20 -16 -42z m-533 -153 c0 -45 -3 -59 -9 -45 l-9 20 -1 -20
c-1 -15 -6 -11 -17 15 -15 34 -12 127 4 153 12 20 31 -57 32 -123z m-136 60
c19 -23 44 -64 56 -93 l21 -52 -27 30 -26 30 18 -30 c10 -16 29 -43 44 -59
l26 -28 -30 15 c-62 32 -108 102 -125 190 -4 20 -4 37 1 37 4 0 23 -18 42 -40z
m726 -369 c1 -41 -5 -65 -24 -98 -14 -23 -28 -43 -30 -43 -3 0 -3 17 -1 38 2
20 2 31 -1 23 -5 -11 -7 -11 -15 0 -6 10 -7 7 -3 -9 4 -14 0 -28 -11 -39 -17
-17 -17 -15 -11 29 4 26 23 80 43 120 42 82 52 78 53 -21z m-569 39 c11 -7 3
-10 -30 -11 -25 -1 -34 -3 -20 -6 87 -13 94 -15 80 -23 -8 -4 -32 -10 -53 -14
-41 -8 -111 17 -136 47 -12 16 -7 17 65 17 44 0 86 -5 94 -10z m115 -150 c3
-5 -1 -10 -9 -10 -9 0 -16 5 -16 10 0 6 4 10 9 10 6 0 13 -4 16 -10z m-5 -40
c0 -14 -7 -20 -23 -20 -30 0 -40 10 -26 27 18 20 49 16 49 -7z m20 -35 c-7 -9
-15 -13 -17 -11 -7 7 7 26 19 26 6 0 6 -6 -2 -15z m477 -115 c-11 -18 -33 -29
-24 -12 2 4 7 15 10 25 4 10 11 16 17 12 6 -4 5 -13 -3 -25z m-308 -76 c57
-51 99 -120 83 -136 -15 -15 -99 67 -128 124 -13 26 -24 50 -24 53 0 14 23 1
69 -41z m-114 -79 c28 -13 66 -38 85 -55 l35 -30 -39 15 c-56 22 -56 11 0 -14
26 -12 45 -23 42 -26 -9 -9 -111 15 -138 33 -15 9 -51 39 -81 66 l-54 49 50
-7 c28 -3 73 -17 100 -31z m285 -270 c65 -17 101 -38 156 -90 39 -37 42 -42
15 -24 -19 13 -31 18 -27 11 10 -16 0 -15 -32 5 -16 10 -11 3 12 -18 22 -19
51 -40 65 -46 25 -12 25 -13 -9 -7 -68 11 -157 62 -210 121 -52 59 -62 80 -32
68 9 -4 37 -13 62 -20z m320 -285 c-47 -20 -42 -28 6 -10 44 17 39 4 -10 -25
-33 -20 -59 -27 -95 -27 -49 1 -136 29 -96 32 11 0 52 12 90 25 39 13 88 24
110 24 l40 0 -45 -19z m800 -243 c-30 -13 -64 -29 -75 -36 l-20 -13 20 8 c11
4 48 17 83 30 34 13 62 22 62 20 0 -10 -113 -76 -154 -90 -49 -17 -141 -22
-150 -8 -5 8 154 85 209 101 64 19 81 11 25 -12z"/>
<path d="M1639 4023 c-13 -16 -12 -17 4 -4 16 13 21 21 13 21 -2 0 -10 -8 -17
-17z"/>
<path d="M1114 3078 l-19 -23 23 19 c21 18 27 26 19 26 -2 0 -12 -10 -23 -22z"/>
<path d="M741 2774 c0 -11 3 -14 6 -6 3 7 2 16 -1 19 -3 4 -6 -2 -5 -13z"/>
<path d="M990 1467 c0 -2 15 -16 33 -33 l32 -29 -29 33 c-28 30 -36 37 -36 29z"/>
<path d="M4152 3885 c0 -16 2 -22 5 -12 2 9 2 23 0 30 -3 6 -5 -1 -5 -18z"/>
<path d="M1930 3752 c0 -13 35 -22 90 -22 50 0 116 -27 142 -57 47 -52 52 -90
58 -437 l5 -329 30 44 c38 57 92 126 127 164 l27 30 3 295 3 295 200 -1 c110
0 238 -6 285 -13 96 -14 241 -59 303 -95 40 -22 46 -23 121 -13 95 12 91 19
-43 68 -194 70 -208 72 -808 76 -343 3 -543 1 -543 -5z m417 -379 c-1 -43 -3
-10 -3 72 0 83 2 118 3 78 2 -40 2 -107 0 -150z"/>
<path d="M977 3663 c-4 -3 -7 -11 -7 -17 0 -6 4 -5 9 2 11 19 34 -10 34 -45
l0 -27 14 27 c7 15 21 27 31 28 11 0 12 2 4 6 -7 3 -19 0 -26 -6 -10 -8 -16
-5 -24 14 -12 25 -23 31 -35 18z"/>
<path d="M3240 3585 c-282 -46 -586 -209 -796 -427 -59 -60 -189 -227 -229
-292 -9 -15 -16 -15 -80 7 -160 55 -271 128 -345 227 -45 60 -50 94 -24 155
31 74 -15 137 -73 100 -97 -64 -3 -272 180 -397 66 -45 175 -97 260 -124 45
-14 56 -21 51 -33 -71 -162 -97 -280 -83 -370 5 -30 7 -57 5 -59 -2 -2 -35 -7
-72 -13 -265 -36 -474 -182 -580 -404 -48 -101 -67 -184 -67 -300 -1 -249 97
-441 290 -573 169 -116 458 -135 678 -46 198 81 322 197 422 399 51 101 73
169 122 375 58 241 112 392 180 503 31 52 46 65 130 115 167 97 242 161 270
230 16 38 3 62 -34 62 -70 0 -242 -136 -346 -275 -43 -57 -51 -63 -160 -109
-157 -67 -235 -93 -357 -116 l-104 -20 -42 38 c-57 52 -106 81 -184 107 -61
21 -67 25 -74 56 -10 44 -2 107 24 191 25 81 88 194 109 192 8 -1 50 -9 94
-19 105 -22 351 -31 495 -16 277 27 573 131 763 268 49 36 52 40 38 61 -6 10
-24 1 -76 -38 -268 -203 -739 -304 -1148 -246 -173 25 -166 18 -101 104 70 92
218 242 309 314 166 129 316 210 530 283 123 42 342 58 442 32 98 -26 163
-101 163 -189 1 -49 25 -93 36 -64 3 9 4 43 2 76 -8 112 -94 201 -222 231 -79
18 -298 20 -396 4z m190 -21 c-147 -19 -226 -39 -372 -96 -204 -79 -330 -164
-533 -358 -55 -52 -85 -77 -66 -55 78 94 281 268 386 331 181 108 463 191 650
191 22 0 -7 -6 -65 -13z m167 0 c-3 -3 -12 -4 -19 -1 -8 3 -5 6 6 6 11 1 17
-2 13 -5z m-1413 -964 c-54 -184 -19 -337 86 -380 17 -7 28 -15 26 -18 -14
-13 -98 52 -123 96 -25 42 -28 57 -28 137 0 73 6 106 29 173 15 46 29 82 31
80 2 -2 -8 -41 -21 -88z m1266 69 c0 -28 -233 -219 -249 -203 -8 7 109 123
173 170 60 45 76 52 76 33z m-273 -191 c-137 -162 -212 -324 -283 -608 -75
-304 -111 -403 -188 -518 -49 -75 -171 -195 -227 -225 l-34 -18 30 22 c68 51
194 189 234 256 59 100 93 196 152 428 87 342 171 522 318 678 51 54 50 46 -2
-15z m-1022 -191 c41 -56 120 -102 201 -117 l66 -13 25 -54 c37 -81 56 -208
50 -333 -5 -110 -35 -227 -62 -250 -18 -15 -16 -40 -21 339 -2 145 -5 270 -8
278 -3 7 -20 13 -38 13 -18 0 -59 11 -90 24 l-58 24 0 -294 c0 -309 -4 -338
-48 -387 -30 -34 -89 -57 -161 -63 -39 -4 -71 -11 -71 -16 0 -6 140 -8 348 -6
222 2 347 7 347 13 0 6 -36 11 -82 13 l-83 3 41 81 c22 44 47 111 55 147 28
135 11 310 -41 414 -13 28 -23 52 -21 54 2 3 44 13 92 23 93 19 254 72 351
115 31 14 57 24 59 23 1 -2 -18 -37 -43 -77 -60 -100 -117 -241 -203 -510 -41
-128 -91 -262 -117 -312 -51 -100 -136 -202 -221 -266 -102 -77 -274 -133
-406 -133 -123 0 -256 59 -356 160 -118 118 -155 227 -154 455 0 172 20 264
79 371 86 153 247 270 429 309 97 21 107 19 141 -28z m113 4 c20 -11 53 -34
72 -51 l35 -31 -35 6 c-41 7 -105 46 -120 75 -14 26 -1 26 48 1z m-458 -26 c0
-2 -10 -9 -22 -15 -22 -11 -22 -10 -4 4 21 17 26 19 26 11z m654 -88 c20 -29
48 -86 63 -127 24 -67 26 -89 26 -205 0 -106 -4 -140 -21 -185 -24 -65 -28
-56 -7 20 22 82 19 244 -5 336 -24 88 -38 119 -88 189 -19 28 -28 44 -20 37 9
-7 32 -36 52 -65z m-709 55 c-6 -5 -34 -27 -62 -51 -71 -57 -146 -173 -177
-269 -45 -145 -52 -346 -16 -497 12 -51 5 -58 -9 -8 -37 129 -39 333 -6 458
22 85 77 193 127 250 40 45 133 125 146 125 3 0 2 -4 -3 -8z m602 -544 c-1
-62 -3 -12 -3 112 0 124 2 174 3 113 2 -62 2 -164 0 -225z m144 -115 c-12 -20
-14 -14 -5 12 4 9 9 14 11 11 3 -2 0 -13 -6 -23z m-926 -329 c9 -15 12 -23 6
-20 -11 7 -35 46 -28 46 3 0 12 -12 22 -26z"/>
<path d="M880 3551 c0 -11 14 -32 31 -48 17 -15 44 -40 60 -55 35 -32 37 -22
5 40 -21 41 -36 54 -88 80 -5 2 -8 -6 -8 -17z m59 -25 l22 -23 -22 1 c-25 1
-61 46 -37 46 8 0 25 -11 37 -24z"/>
<path d="M3423 3523 c-24 -2 -43 -8 -43 -13 0 -5 29 -35 64 -67 295 -271 470
-729 428 -1120 -17 -151 -36 -223 -92 -338 -94 -193 -231 -331 -425 -425 -139
-68 -248 -97 -416 -111 -76 -7 -139 -16 -139 -21 0 -13 172 -9 282 7 274 41
551 188 703 372 142 171 216 343 250 578 19 128 19 192 0 324 -47 325 -172
558 -408 762 -73 64 -72 64 -204 52z m462 -433 c85 -145 125 -308 125 -512 0
-179 -31 -361 -83 -483 -19 -45 -105 -195 -111 -195 -1 0 24 53 56 118 70 140
101 256 118 438 25 255 -24 486 -140 676 -17 27 -27 47 -21 44 5 -3 30 -42 56
-86z m-75 -1204 c0 -2 -8 -10 -17 -17 -16 -13 -17 -12 -4 4 13 16 21 21 21 13z
m-30 -39 c0 -2 -12 -14 -27 -28 l-28 -24 24 28 c23 25 31 32 31 24z"/>
<path d="M1265 3411 c-11 -15 -13 -21 -4 -14 8 7 26 16 39 21 22 8 22 9 4 14
-13 3 -26 -3 -39 -21z"/>
<path d="M1335 3422 c4 -8 0 -21 -10 -32 -16 -18 -16 -20 -1 -26 21 -8 21 -31
-1 -37 -17 -4 -17 -5 0 -6 21 -1 34 26 19 41 -8 8 -8 17 -1 31 8 14 7 22 -2
31 -9 8 -10 8 -4 -2z"/>
<path d="M2380 2870 c-23 -33 -20 -50 11 -50 16 0 19 7 19 40 0 22 -2 40 -4
40 -3 0 -14 -13 -26 -30z"/>
<path d="M2295 2746 c-8 -11 -28 -51 -45 -88 -28 -62 -30 -76 -30 -177 l0
-109 33 -7 c17 -4 60 -22 95 -41 l62 -34 0 229 0 228 -51 10 c-46 10 -51 9
-64 -11z"/>
<path d="M984 2717 c3 -10 6 -26 6 -35 0 -12 3 -13 11 -5 8 8 7 17 -6 35 -12
16 -16 18 -11 5z"/>
<path d="M955 2632 c2 -65 -3 -96 -21 -145 -26 -73 -45 -193 -43 -275 2 -52 2
-50 10 26 12 131 30 167 97 200 15 7 19 10 10 7 -10 -2 -18 -2 -18 2 0 3 8 12
18 19 16 13 16 14 -3 8 -15 -4 -12 1 10 20 29 25 92 52 100 44 6 -6 -66 -78
-78 -78 -6 0 -8 -3 -5 -6 11 -10 43 14 87 66 51 60 43 61 -64 10 -46 -22 -67
-40 -88 -75 -37 -59 -48 -64 -36 -18 20 73 41 121 58 127 9 3 23 9 31 14 8 5
28 15 44 23 16 8 31 21 33 29 3 10 2 11 -4 4 -11 -16 -54 -37 -60 -30 -3 3 2
17 11 30 19 30 22 48 3 22 -13 -18 -36 -19 -49 -1 -4 6 -8 -1 -8 -14 0 -38
-28 -7 -33 37 -2 20 -3 0 -2 -46z"/>
<path d="M4693 2035 c0 -22 2 -30 4 -17 2 12 2 30 0 40 -3 9 -5 -1 -4 -23z"/>
<path d="M1065 2050 c-4 -6 -15 -8 -25 -5 -25 8 -34 -10 -19 -37 7 -13 18 -48
25 -78 12 -54 12 -55 13 -15 1 22 10 54 21 70 23 35 26 75 6 75 -8 0 -18 -5
-21 -10z m25 -12 c0 -7 -4 -19 -9 -27 -11 -17 -23 1 -15 23 7 19 24 21 24 4z
m-53 -20 c-3 -8 -6 -5 -6 6 -1 11 2 17 5 13 3 -3 4 -12 1 -19z"/>
<path d="M4397 2053 c-12 -12 -7 -38 13 -63 13 -16 20 -42 21 -75 l1 -50 8 41
c5 22 16 58 24 79 20 47 20 65 1 65 -8 0 -15 -5 -15 -11 0 -5 5 -7 10 -4 12 7
13 -5 2 -22 -5 -8 -12 -2 -21 18 -12 28 -30 37 -44 22z m33 -34 c0 -10 -4 -19
-9 -19 -10 0 -21 36 -14 44 10 10 23 -5 23 -25z"/>
<path d="M4240 1705 c0 -5 5 -17 10 -25 5 -8 10 -10 10 -5 0 6 -5 17 -10 25
-5 8 -10 11 -10 5z"/>
<path d="M3325 878 l-40 -43 43 40 c23 21 42 40 42 42 0 8 -9 0 -45 -39z"/>
<path d="M3230 810 c-9 -6 -10 -10 -3 -10 6 0 15 5 18 10 8 12 4 12 -15 0z"/>
</g>
</svg>
